<?xml version="1.0" encoding="UTF-8" standalone="no"?>
<!DOCTYPE svg PUBLIC "-//W3C//DTD SVG 1.1//EN" "http://www.w3.org/Graphics/SVG/1.1/DTD/svg11.dtd">
<svg xmlns="http://www.w3.org/2000/svg" version="1.1" viewBox="0.00 0.00 277.00 245.00">
<g stroke-width="2.00" fill="none" stroke-linecap="butt">
<path stroke="#675050" vector-effect="non-scaling-stroke" d="
  M 224.62 79.49
  Q 223.25 80.16 222.74 81.28
  Q 222.51 81.79 223.05 81.62
  Q 224.22 81.24 225.16 80.35"
/>
<path stroke="#7f7d7e" vector-effect="non-scaling-stroke" d="
  M 89.77 61.97
  Q 89.79 63.67 90.46 64.75
  Q 90.75 65.21 90.94 64.70
  Q 91.39 63.51 91.38 62.22"
/>
<path stroke="#675050" vector-effect="non-scaling-stroke" d="
  M 208.49 26.56
  L 205.60 18.26
  A 0.53 0.53 0.0 0 0 204.67 18.13
  Q 200.99 23.42 199.46 29.07
  A 0.91 0.90 -65.2 0 0 199.81 30.04
  Q 202.55 31.97 204.72 34.60
  Q 205.15 35.13 205.54 34.56
  L 209.73 28.45
  Q 209.98 28.08 209.78 27.67
  Q 209.68 27.47 209.44 27.41
  Q 208.73 27.25 208.49 26.56"
/>
<path stroke="#675050" vector-effect="non-scaling-stroke" d="
  M 213.45 28.71
  L 208.66 35.47
  A 3.02 3.01 46.3 0 0 208.59 38.85
  L 214.40 47.93
  A 0.48 0.48 0.0 0 0 215.17 47.97
  L 218.97 43.39"
/>
<path stroke="#7f7d7e" vector-effect="non-scaling-stroke" d="
  M 218.97 43.39
  Q 219.39 36.29 215.67 30.05
  Q 215.44 29.66 215.33 29.22
  L 214.94 27.56
  Q 214.78 26.89 214.25 27.33
  Q 213.51 27.93 213.45 28.71"
/>
<path stroke="#e5cdce" vector-effect="non-scaling-stroke" d="
  M 218.97 43.39
  L 213.45 28.71"
/>
<path stroke="#675050" vector-effect="non-scaling-stroke" d="
  M 196.44 32.31
  A 1.59 1.59 0.0 0 0 193.98 33.05
  Q 190.58 42.78 190.22 51.47
  C 190.18 52.56 190.45 53.63 191.30 54.37
  Q 199.19 61.19 205.34 69.31
  A 0.35 0.35 0.0 0 0 205.96 69.16
  Q 207.29 60.87 212.03 53.44
  A 1.57 1.56 -43.7 0 0 212.07 51.82
  C 207.75 44.37 203.29 37.49 196.44 32.31"
/>
<path stroke="#675050" vector-effect="non-scaling-stroke" d="
  M 220.06 47.03
  Q 218.12 48.89 217.11 51.13
  Q 216.05 53.51 215.07 54.88
  C 209.18 63.20 209.11 76.38 212.20 85.27
  A 0.26 0.26 0.0 0 0 212.57 85.42
  Q 221.86 80.44 226.64 71.43"
/>
<path stroke="#7f7d7e" vector-effect="non-scaling-stroke" d="
  M 226.64 71.43
  Q 228.23 64.00 226.17 57.14
  Q 224.75 52.41 222.53 46.89
  A 1.16 1.06 -83.4 0 0 222.25 46.50
  Q 220.96 45.32 220.06 47.03"
/>
<path stroke="#e5cdce" vector-effect="non-scaling-stroke" d="
  M 226.64 71.43
  Q 226.43 71.25 226.26 71.15
  Q 225.93 70.93 225.94 70.54
  Q 226.33 58.14 220.06 47.03"
/>
<path stroke="#675050" vector-effect="non-scaling-stroke" d="
  M 184.29 53.49
  A 0.29 0.29 0.0 0 0 183.95 53.74
  Q 183.49 57.03 183.98 59.26
  C 186.69 71.66 193.10 83.40 205.50 87.44
  Q 206.90 87.89 206.83 86.42
  C 206.66 83.13 206.50 79.77 204.89 76.78
  Q 201.10 69.74 196.70 65.37
  Q 191.18 59.88 185.30 54.02
  Q 184.88 53.60 184.29 53.49"
/>
<path stroke="#675050" vector-effect="non-scaling-stroke" d="
  M 77.14 64.51
  Q 75.68 73.06 77.24 81.88
  Q 77.92 85.76 79.77 89.48
  Q 84.91 99.81 88.06 110.86
  C 88.62 112.83 88.72 114.93 89.24 116.88
  Q 89.46 117.71 89.71 116.88
  Q 90.24 115.14 90.11 113.27
  Q 89.56 105.13 90.39 98.28
  C 91.16 91.89 90.65 86.39 89.54 80.51
  Q 87.57 69.97 85.16 61.55"
/>
<path stroke="#7f7d7e" vector-effect="non-scaling-stroke" d="
  M 85.16 61.55
  Q 83.38 56.17 79.86 51.56
  A 0.57 0.56 -56.0 0 0 78.87 51.76
  Q 77.29 57.47 77.14 64.51"
/>
<path stroke="#e5cdce" vector-effect="non-scaling-stroke" d="
  M 85.16 61.55
  Q 81.81 66.98 77.14 64.51"
/>
<path stroke="#675050" vector-effect="non-scaling-stroke" d="
  M 65.82 56.03
  L 65.18 65.34
  Q 65.15 65.84 65.42 66.26
  L 72.57 77.43
  Q 73.23 78.45 73.28 77.24
  L 73.88 61.36"
/>
<path stroke="#7f7d7e" vector-effect="non-scaling-stroke" d="
  M 73.88 61.36
  Q 74.59 59.60 74.57 57.95
  Q 74.56 57.06 73.86 57.61
  Q 73.32 58.05 72.49 57.75
  Q 71.97 57.56 71.52 57.23
  L 67.76 54.50
  A 1.08 1.07 26.0 0 0 66.09 55.07
  L 65.82 56.03"
/>
<path stroke="#e5cdce" vector-effect="non-scaling-stroke" d="
  M 73.88 61.36
  C 72.42 60.21 72.12 58.42 70.71 57.52
  Q 69.74 56.91 68.63 56.70
  Q 68.14 56.61 67.68 56.78
  Q 66.53 57.22 65.82 56.03"
/>
<path stroke="#675050" vector-effect="non-scaling-stroke" d="
  M 94.09 64.26
  Q 93.10 67.77 92.60 71.27
  Q 92.07 75.01 92.81 78.34
  C 94.58 86.27 94.32 93.89 93.27 101.88
  C 92.65 106.56 94.67 111.65 93.19 116.07
  Q 92.35 118.57 93.99 116.51
  Q 99.38 109.70 101.25 101.60"
/>
<path stroke="#7f7d7e" vector-effect="non-scaling-stroke" d="
  M 101.25 101.60
  Q 107.31 80.42 95.36 62.06
  A 0.67 0.67 0.0 0 0 94.17 62.19
  Q 93.74 63.34 94.09 64.26"
/>
<path stroke="#e5cdce" vector-effect="non-scaling-stroke" d="
  M 101.25 101.60
  Q 103.75 80.44 94.09 64.26"
/>
<path stroke="#675050" vector-effect="non-scaling-stroke" d="
  M 57.88 76.07
  Q 59.54 84.74 61.70 92.26
  Q 66.80 110.01 79.82 123.74
  Q 83.06 127.15 86.21 123.55
  A 1.48 1.47 64.9 0 0 86.58 122.52
  Q 86.41 118.84 85.34 115.69
  C 82.62 107.77 80.34 99.50 76.35 91.89
  Q 69.94 79.68 61.33 68.75"
/>
<path stroke="#7f7d7e" vector-effect="non-scaling-stroke" d="
  M 61.33 68.75
  L 57.54 63.75
  A 0.45 0.44 24.2 0 0 56.74 64.05
  L 57.88 76.07"
/>
<path stroke="#e5cdce" vector-effect="non-scaling-stroke" d="
  M 61.33 68.75
  Q 60.87 73.65 57.88 76.07"
/>
<path stroke="#675050" vector-effect="non-scaling-stroke" d="
  M 42.71 73.31
  L 42.64 83.17
  Q 42.64 83.68 43.06 83.95
  Q 50.74 88.99 57.74 94.65
  Q 58.83 95.52 58.44 94.18
  Q 55.36 83.43 53.59 73.23
  Q 53.49 72.70 53.02 72.45
  L 48.22 69.97"
/>
<path stroke="#7f7d7e" vector-effect="non-scaling-stroke" d="
  M 48.22 69.97
  C 44.47 67.74 42.52 69.08 42.71 73.31"
/>
<path stroke="#e5cdce" vector-effect="non-scaling-stroke" d="
  M 48.22 69.97
  L 42.71 73.31"
/>
<path stroke="#675050" vector-effect="non-scaling-stroke" d="
  M 37.38 97.68
  Q 43.83 109.51 55.93 117.06
  Q 65.54 123.05 72.92 126.24
  Q 74.22 126.80 75.62 127.00
  Q 76.37 127.10 75.88 126.52
  Q 68.33 117.67 63.27 107.07
  Q 62.23 104.89 60.24 103.03
  Q 57.66 100.62 54.96 97.81
  Q 50.81 93.48 41.07 88.45"
/>
<path stroke="#7f7d7e" vector-effect="non-scaling-stroke" d="
  M 41.07 88.45
  L 35.68 85.63
  A 0.59 0.58 8.3 0 0 34.83 86.26
  Q 35.40 89.03 35.79 92.00
  C 36.06 94.03 36.89 95.67 37.38 97.68"
/>
<path stroke="#e5cdce" vector-effect="non-scaling-stroke" d="
  M 41.07 88.45
  Q 41.10 91.80 42.47 94.75
  A 0.86 0.86 0.0 0 1 42.00 95.92
  L 37.38 97.68"
/>
<path stroke="#7f7d7e" vector-effect="non-scaling-stroke" d="
  M 33.32 111.92
  Q 38.16 123.99 50.66 127.90
  Q 55.18 129.31 59.73 129.78"
/>
<path stroke="#675050" vector-effect="non-scaling-stroke" d="
  M 59.73 129.78
  Q 64.24 130.68 68.74 130.02
  Q 69.81 129.87 68.81 129.45
  Q 67.64 128.96 66.52 128.39
  Q 57.96 124.05 49.67 118.18
  Q 38.78 110.45 34.17 99.67
  Q 33.87 98.97 33.11 99.03
  L 30.94 99.19
  A 1.86 1.85 82.7 0 0 29.26 101.37
  Q 30.34 107.44 33.32 111.92"
/>
<path stroke="#e5cdce" vector-effect="non-scaling-stroke" d="
  M 59.73 129.78
  L 60.60 129.37
  A 0.30 0.30 0.0 0 0 60.54 128.81
  Q 55.52 127.69 50.77 125.82
  Q 40.35 121.72 33.32 111.92"
/>
<path stroke="#675050" vector-effect="non-scaling-stroke" d="
  M 98.15 117.04
  L 94.58 119.13
  A 1.08 1.07 -15.0 0 0 94.04 120.06
  L 94.03 120.33
  Q 94.03 120.77 94.43 120.58
  L 100.30 117.79"
/>
</g>
<path fill="#000000" d="
  M 224.62 79.49
  Q 223.25 80.16 222.74 81.28
  Q 222.51 81.79 223.05 81.62
  Q 224.22 81.24 225.16 80.35
  Q 231.00 76.61 237.51 74.54
  Q 239.54 73.90 240.66 74.35
  Q 242.32 75.03 241.30 76.51
  Q 238.16 81.03 233.09 83.93
  Q 226.34 87.77 219.20 89.73
  Q 217.29 90.25 215.50 90.87
  Q 213.74 91.48 211.95 91.66
  A 1.18 1.18 0.0 0 0 210.89 92.81
  Q 210.69 102.41 209.55 111.68
  Q 207.85 125.50 204.75 141.71
  Q 201.94 156.44 199.13 172.98
  Q 198.79 175.03 198.52 177.03
  C 198.25 179.06 197.53 180.89 197.45 182.93
  C 197.35 185.92 196.44 188.81 196.25 191.72
  Q 195.99 195.48 195.59 199.14
  Q 195.14 203.21 195.01 206.53
  Q 194.77 212.97 194.45 219.77
  Q 194.18 225.44 195.34 229.16
  A 1.53 1.52 -20.6 0 1 194.49 231.01
  L 194.21 231.13
  Q 192.59 231.82 191.86 230.22
  Q 191.02 228.37 191.07 226.58
  Q 191.36 215.72 191.48 205.01
  C 191.53 200.85 192.30 196.72 192.59 192.50
  Q 192.74 190.26 193.18 187.64
  Q 197.71 160.53 202.42 136.96
  C 203.50 131.56 204.00 125.85 205.01 120.25
  Q 205.86 115.53 206.08 111.60
  C 206.40 105.66 207.69 99.90 207.17 93.84
  A 1.05 1.04 -1.5 0 0 206.16 92.89
  Q 200.48 92.74 194.93 92.76
  C 193.36 92.76 192.11 92.05 190.58 92.00
  Q 187.00 91.89 183.47 91.20
  A 1.87 1.82 69.7 0 1 182.71 90.84
  Q 182.02 90.29 181.16 90.07
  C 178.79 89.46 174.70 87.18 175.19 84.31
  A 1.76 1.76 0.0 0 1 176.98 82.85
  C 179.33 82.92 181.11 84.09 183.28 84.75
  Q 189.56 86.67 196.76 88.67
  Q 197.35 88.83 197.61 88.27
  Q 197.84 87.76 197.36 87.48
  Q 188.60 82.38 184.04 71.97
  Q 182.43 68.31 181.31 63.82
  Q 180.30 59.76 180.35 55.38
  Q 180.41 50.16 185.25 50.79
  A 1.44 1.44 0.0 0 0 186.87 49.29
  Q 186.43 40.19 190.85 32.90
  C 191.53 31.78 192.52 30.69 193.75 30.21
  C 196.31 29.20 196.11 27.28 197.15 25.23
  Q 200.48 18.66 203.66 14.56
  C 204.74 13.17 206.95 13.44 207.90 14.91
  Q 210.26 18.53 211.56 22.91
  A 1.21 1.21 0.0 0 0 213.57 23.43
  Q 214.89 22.13 216.80 22.63
  Q 217.35 22.77 217.55 23.31
  C 219.49 28.51 222.24 33.33 223.02 39.17
  Q 223.26 41.01 224.29 42.32
  Q 232.07 52.29 231.22 65.77
  C 231.03 68.62 229.88 72.74 228.13 74.87
  Q 226.29 77.09 224.62 79.49
  Z
  M 208.49 26.56
  L 205.60 18.26
  A 0.53 0.53 0.0 0 0 204.67 18.13
  Q 200.99 23.42 199.46 29.07
  A 0.91 0.90 -65.2 0 0 199.81 30.04
  Q 202.55 31.97 204.72 34.60
  Q 205.15 35.13 205.54 34.56
  L 209.73 28.45
  Q 209.98 28.08 209.78 27.67
  Q 209.68 27.47 209.44 27.41
  Q 208.73 27.25 208.49 26.56
  Z
  M 213.45 28.71
  L 208.66 35.47
  A 3.02 3.01 46.3 0 0 208.59 38.85
  L 214.40 47.93
  A 0.48 0.48 0.0 0 0 215.17 47.97
  L 218.97 43.39
  Q 219.39 36.29 215.67 30.05
  Q 215.44 29.66 215.33 29.22
  L 214.94 27.56
  Q 214.78 26.89 214.25 27.33
  Q 213.51 27.93 213.45 28.71
  Z
  M 196.44 32.31
  A 1.59 1.59 0.0 0 0 193.98 33.05
  Q 190.58 42.78 190.22 51.47
  C 190.18 52.56 190.45 53.63 191.30 54.37
  Q 199.19 61.19 205.34 69.31
  A 0.35 0.35 0.0 0 0 205.96 69.16
  Q 207.29 60.87 212.03 53.44
  A 1.57 1.56 -43.7 0 0 212.07 51.82
  C 207.75 44.37 203.29 37.49 196.44 32.31
  Z
  M 220.06 47.03
  Q 218.12 48.89 217.11 51.13
  Q 216.05 53.51 215.07 54.88
  C 209.18 63.20 209.11 76.38 212.20 85.27
  A 0.26 0.26 0.0 0 0 212.57 85.42
  Q 221.86 80.44 226.64 71.43
  Q 228.23 64.00 226.17 57.14
  Q 224.75 52.41 222.53 46.89
  A 1.16 1.06 -83.4 0 0 222.25 46.50
  Q 220.96 45.32 220.06 47.03
  Z
  M 184.29 53.49
  A 0.29 0.29 0.0 0 0 183.95 53.74
  Q 183.49 57.03 183.98 59.26
  C 186.69 71.66 193.10 83.40 205.50 87.44
  Q 206.90 87.89 206.83 86.42
  C 206.66 83.13 206.50 79.77 204.89 76.78
  Q 201.10 69.74 196.70 65.37
  Q 191.18 59.88 185.30 54.02
  Q 184.88 53.60 184.29 53.49
  Z"
/>
<path fill="#cda09f" d="
  M 209.44 27.41
  Q 209.68 27.47 209.78 27.67
  Q 209.98 28.08 209.73 28.45
  L 205.54 34.56
  Q 205.15 35.13 204.72 34.60
  Q 202.55 31.97 199.81 30.04
  A 0.91 0.90 -65.2 0 1 199.46 29.07
  Q 200.99 23.42 204.67 18.13
  A 0.53 0.53 0.0 0 1 205.60 18.26
  L 208.49 26.56
  Q 208.73 27.25 209.44 27.41
  Z"
/>
<path fill="#fdf9fc" d="
  M 218.97 43.39
  L 213.45 28.71
  Q 213.51 27.93 214.25 27.33
  Q 214.78 26.89 214.94 27.56
  L 215.33 29.22
  Q 215.44 29.66 215.67 30.05
  Q 219.39 36.29 218.97 43.39
  Z"
/>
<path fill="#cda09f" d="
  M 213.45 28.71
  L 218.97 43.39
  L 215.17 47.97
  A 0.48 0.48 0.0 0 1 214.40 47.93
  L 208.59 38.85
  A 3.02 3.01 46.3 0 1 208.66 35.47
  L 213.45 28.71
  Z"
/>
<path fill="#cda09f" d="
  M 196.44 32.31
  C 203.29 37.49 207.75 44.37 212.07 51.82
  A 1.57 1.56 -43.7 0 1 212.03 53.44
  Q 207.29 60.87 205.96 69.16
  A 0.35 0.35 0.0 0 1 205.34 69.31
  Q 199.19 61.19 191.30 54.37
  C 190.45 53.63 190.18 52.56 190.22 51.47
  Q 190.58 42.78 193.98 33.05
  A 1.59 1.59 0.0 0 1 196.44 32.31
  Z"
/>
<path fill="#fdf9fc" d="
  M 226.64 71.43
  Q 226.43 71.25 226.26 71.15
  Q 225.93 70.93 225.94 70.54
  Q 226.33 58.14 220.06 47.03
  Q 220.96 45.32 222.25 46.50
  A 1.16 1.06 -83.4 0 1 222.53 46.89
  Q 224.75 52.41 226.17 57.14
  Q 228.23 64.00 226.64 71.43
  Z"
/>
<path fill="#cda09f" d="
  M 220.06 47.03
  Q 226.33 58.14 225.94 70.54
  Q 225.93 70.93 226.26 71.15
  Q 226.43 71.25 226.64 71.43
  Q 221.86 80.44 212.57 85.42
  A 0.26 0.26 0.0 0 1 212.20 85.27
  C 209.11 76.38 209.18 63.20 215.07 54.88
  Q 216.05 53.51 217.11 51.13
  Q 218.12 48.89 220.06 47.03
  Z"
/>
<path fill="#000000" d="
  M 89.77 61.97
  Q 89.79 63.67 90.46 64.75
  Q 90.75 65.21 90.94 64.70
  Q 91.39 63.51 91.38 62.22
  C 92.99 60.69 93.18 58.57 94.44 56.76
  Q 95.65 55.02 96.86 56.77
  Q 105.50 69.35 105.91 82.18
  Q 106.07 87.02 105.82 92.26
  C 105.51 98.69 103.62 104.61 100.67 110.31
  Q 99.19 113.16 102.15 111.92
  Q 110.12 108.58 117.47 107.49
  Q 127.78 105.97 138.44 106.83
  Q 144.54 107.32 150.56 110.56
  Q 152.44 111.57 151.33 113.37
  C 149.67 116.05 147.10 118.14 144.38 119.64
  C 140.64 121.69 137.14 124.25 133.32 126.00
  Q 125.99 129.35 116.97 131.52
  Q 110.92 132.98 103.00 132.43
  C 98.09 132.09 93.61 130.22 88.95 129.09
  Q 87.68 128.78 87.58 130.08
  Q 87.54 130.52 87.76 130.91
  Q 88.64 132.51 90.36 132.92
  Q 108.24 137.24 123.76 148.43
  C 129.48 152.55 134.17 158.63 139.91 163.15
  C 141.55 164.45 144.11 165.39 145.18 167.04
  Q 146.79 169.51 144.55 171.82
  Q 142.96 173.46 139.72 173.12
  Q 135.94 172.74 132.78 172.41
  C 131.80 172.31 131.34 171.76 130.46 171.64
  C 118.77 170.01 108.16 161.94 100.34 153.93
  Q 100.20 153.79 100.04 153.68
  Q 99.85 153.55 99.62 153.57
  Q 98.64 153.64 99.08 154.52
  C 115.34 187.07 133.62 219.71 160.56 243.93
  Q 161.31 244.60 160.30 244.61
  L 156.06 244.63
  Q 155.09 244.64 154.40 243.95
  Q 139.00 228.44 129.28 214.58
  Q 110.80 188.27 93.66 151.42
  A 0.55 0.55 0.0 0 0 92.69 151.38
  Q 92.44 151.80 92.54 152.28
  C 94.50 162.10 96.04 172.44 97.79 182.54
  Q 98.82 188.47 99.23 194.55
  C 99.47 198.01 98.72 203.15 94.34 202.95
  Q 91.35 202.81 89.70 199.68
  C 88.71 197.79 87.62 195.70 86.99 193.66
  Q 84.04 184.08 82.64 174.48
  Q 82.11 170.79 81.49 167.39
  Q 80.86 163.89 80.72 160.35
  Q 80.35 150.69 80.76 140.22
  Q 80.78 139.69 81.03 139.22
  Q 81.78 137.76 81.32 136.39
  Q 81.02 135.49 80.79 136.41
  Q 77.56 149.50 72.95 161.60
  Q 67.79 175.14 61.92 189.73
  Q 58.87 197.32 54.05 203.81
  A 0.90 0.90 0.0 0 1 52.46 203.52
  C 51.88 201.47 51.20 199.52 51.03 197.40
  Q 48.23 161.82 71.83 137.12
  Q 73.33 135.55 74.29 134.14
  A 0.52 0.52 0.0 0 0 73.83 133.33
  C 66.18 133.85 59.25 134.28 51.76 132.51
  Q 49.28 131.93 47.04 130.88
  C 45.08 129.97 42.93 129.21 41.06 128.12
  C 33.88 123.97 29.46 116.40 27.42 108.28
  C 26.28 103.71 25.73 96.38 31.78 95.14
  A 1.03 1.03 0.0 0 0 32.58 93.94
  C 32.01 91.00 30.60 83.80 33.61 81.79
  C 34.99 80.87 36.91 81.42 38.49 81.50
  A 1.28 1.27 -87.6 0 0 39.83 80.26
  Q 39.96 76.06 40.33 71.45
  C 40.73 66.51 44.53 63.48 49.50 65.87
  Q 50.57 66.39 51.64 66.92
  A 1.24 1.24 0.0 0 0 53.43 65.73
  Q 53.28 63.34 54.17 61.39
  C 55.40 58.69 57.97 58.21 60.05 60.18
  Q 60.82 60.91 61.67 61.51
  A 0.67 0.67 0.0 0 0 62.71 61.11
  C 63.63 56.98 62.11 52.03 67.46 50.23
  Q 67.96 50.06 68.46 50.24
  Q 71.73 51.39 73.99 53.66
  A 1.19 1.19 0.0 0 0 75.93 53.29
  C 76.83 51.20 77.31 48.77 79.51 47.63
  Q 79.98 47.38 80.48 47.55
  Q 83.09 48.41 84.41 50.61
  Q 87.69 56.07 89.77 61.97
  Z
  M 77.14 64.51
  Q 75.68 73.06 77.24 81.88
  Q 77.92 85.76 79.77 89.48
  Q 84.91 99.81 88.06 110.86
  C 88.62 112.83 88.72 114.93 89.24 116.88
  Q 89.46 117.71 89.71 116.88
  Q 90.24 115.14 90.11 113.27
  Q 89.56 105.13 90.39 98.28
  C 91.16 91.89 90.65 86.39 89.54 80.51
  Q 87.57 69.97 85.16 61.55
  Q 83.38 56.17 79.86 51.56
  A 0.57 0.56 -56.0 0 0 78.87 51.76
  Q 77.29 57.47 77.14 64.51
  Z
  M 65.82 56.03
  L 65.18 65.34
  Q 65.15 65.84 65.42 66.26
  L 72.57 77.43
  Q 73.23 78.45 73.28 77.24
  L 73.88 61.36
  Q 74.59 59.60 74.57 57.95
  Q 74.56 57.06 73.86 57.61
  Q 73.32 58.05 72.49 57.75
  Q 71.97 57.56 71.52 57.23
  L 67.76 54.50
  A 1.08 1.07 26.0 0 0 66.09 55.07
  L 65.82 56.03
  Z
  M 94.09 64.26
  Q 93.10 67.77 92.60 71.27
  Q 92.07 75.01 92.81 78.34
  C 94.58 86.27 94.32 93.89 93.27 101.88
  C 92.65 106.56 94.67 111.65 93.19 116.07
  Q 92.35 118.57 93.99 116.51
  Q 99.38 109.70 101.25 101.60
  Q 107.31 80.42 95.36 62.06
  A 0.67 0.67 0.0 0 0 94.17 62.19
  Q 93.74 63.34 94.09 64.26
  Z
  M 57.88 76.07
  Q 59.54 84.74 61.70 92.26
  Q 66.80 110.01 79.82 123.74
  Q 83.06 127.15 86.21 123.55
  A 1.48 1.47 64.9 0 0 86.58 122.52
  Q 86.41 118.84 85.34 115.69
  C 82.62 107.77 80.34 99.50 76.35 91.89
  Q 69.94 79.68 61.33 68.75
  L 57.54 63.75
  A 0.45 0.44 24.2 0 0 56.74 64.05
  L 57.88 76.07
  Z
  M 42.71 73.31
  L 42.64 83.17
  Q 42.64 83.68 43.06 83.95
  Q 50.74 88.99 57.74 94.65
  Q 58.83 95.52 58.44 94.18
  Q 55.36 83.43 53.59 73.23
  Q 53.49 72.70 53.02 72.45
  L 48.22 69.97
  C 44.47 67.74 42.52 69.08 42.71 73.31
  Z
  M 37.38 97.68
  Q 43.83 109.51 55.93 117.06
  Q 65.54 123.05 72.92 126.24
  Q 74.22 126.80 75.62 127.00
  Q 76.37 127.10 75.88 126.52
  Q 68.33 117.67 63.27 107.07
  Q 62.23 104.89 60.24 103.03
  Q 57.66 100.62 54.96 97.81
  Q 50.81 93.48 41.07 88.45
  L 35.68 85.63
  A 0.59 0.58 8.3 0 0 34.83 86.26
  Q 35.40 89.03 35.79 92.00
  C 36.06 94.03 36.89 95.67 37.38 97.68
  Z
  M 33.32 111.92
  Q 38.16 123.99 50.66 127.90
  Q 55.18 129.31 59.73 129.78
  Q 64.24 130.68 68.74 130.02
  Q 69.81 129.87 68.81 129.45
  Q 67.64 128.96 66.52 128.39
  Q 57.96 124.05 49.67 118.18
  Q 38.78 110.45 34.17 99.67
  Q 33.87 98.97 33.11 99.03
  L 30.94 99.19
  A 1.86 1.85 82.7 0 0 29.26 101.37
  Q 30.34 107.44 33.32 111.92
  Z
  M 98.15 117.04
  L 94.58 119.13
  A 1.08 1.07 -15.0 0 0 94.04 120.06
  L 94.03 120.33
  Q 94.03 120.77 94.43 120.58
  L 100.30 117.79
  Q 106.11 116.00 112.30 115.87
  Q 115.40 115.80 118.24 115.34
  Q 121.27 114.85 124.01 114.98
  A 0.90 0.90 0.0 0 1 124.85 116.04
  Q 124.50 117.89 121.04 118.40
  A 0.05 0.01 -31.7 0 0 121.01 118.41
  Q 117.30 118.81 113.00 118.97
  Q 103.18 119.35 94.03 123.85
  Q 93.19 124.26 92.62 124.95
  A 0.79 0.79 0.0 0 0 93.02 126.21
  Q 100.40 128.21 108.08 129.49
  Q 109.52 129.73 110.92 129.52
  Q 120.49 128.05 128.96 125.18
  C 135.48 122.98 140.46 118.95 146.09 115.39
  A 1.41 1.41 0.0 0 0 145.80 112.87
  C 143.75 112.17 141.88 111.31 139.72 110.98
  Q 137.26 110.60 134.78 110.19
  Q 130.05 109.41 126.35 109.96
  Q 122.16 110.58 118.08 110.88
  Q 107.27 111.65 98.15 117.04
  Z
  M 91.03 162.98
  Q 89.95 156.43 88.88 150.33
  C 88.23 146.55 87.07 142.95 85.90 139.34
  Q 84.44 134.88 83.76 139.53
  Q 83.13 143.87 83.02 147.65
  Q 82.91 151.33 83.39 155.73
  Q 83.91 160.56 84.49 165.25
  Q 85.63 174.49 89.50 187.93
  C 90.28 190.62 91.87 195.99 94.21 197.66
  A 1.60 1.60 0.0 0 0 96.73 196.43
  Q 96.86 193.78 96.22 191.13
  Q 94.07 182.11 92.87 172.48
  C 92.47 169.24 91.58 166.31 91.03 162.98
  Z
  M 122.18 164.84
  Q 129.74 168.48 137.14 168.66
  Q 140.25 168.73 137.77 166.86
  C 131.89 162.42 126.45 157.01 120.86 152.15
  Q 118.57 150.15 106.02 142.41
  C 103.38 140.78 97.10 137.63 93.95 138.02
  A 0.70 0.70 0.0 0 0 93.46 139.12
  Q 102.51 151.98 113.91 160.16
  Q 116.82 162.25 122.18 164.84
  Z
  M 64.71 165.44
  Q 65.02 161.61 65.93 159.46
  Q 69.67 150.66 72.85 142.51
  C 73.34 141.26 74.00 140.38 73.82 138.94
  A 0.51 0.51 0.0 0 0 72.95 138.65
  Q 62.90 148.83 57.82 162.74
  C 56.85 165.40 56.30 168.15 55.55 170.86
  Q 54.70 173.96 54.34 177.22
  Q 53.95 180.75 53.59 184.24
  Q 52.88 191.11 54.36 197.56
  A 0.74 0.74 0.0 0 0 55.60 197.93
  Q 56.44 197.12 56.95 196.00
  Q 60.69 187.97 63.18 181.31
  Q 65.98 173.82 69.02 166.27
  Q 74.28 153.22 77.66 139.50
  Q 77.81 138.89 77.35 138.47
  L 77.14 138.29
  A 0.28 0.28 0.0 0 0 76.69 138.39
  Q 73.25 147.17 69.36 156.18
  C 68.27 158.70 67.88 161.27 67.15 163.86
  Q 66.73 165.36 65.32 165.90
  A 0.45 0.45 0.0 0 1 64.71 165.44
  Z"
/>
<path fill="#fdf9fc" d="
  M 85.16 61.55
  Q 81.81 66.98 77.14 64.51
  Q 77.29 57.47 78.87 51.76
  A 0.57 0.56 -56.0 0 1 79.86 51.56
  Q 83.38 56.17 85.16 61.55
  Z"
/>
<path fill="#cda09f" d="
  M 184.29 53.49
  Q 184.88 53.60 185.30 54.02
  Q 191.18 59.88 196.70 65.37
  Q 201.10 69.74 204.89 76.78
  C 206.50 79.77 206.66 83.13 206.83 86.42
  Q 206.90 87.89 205.50 87.44
  C 193.10 83.40 186.69 71.66 183.98 59.26
  Q 183.49 57.03 183.95 53.74
  A 0.29 0.29 0.0 0 1 184.29 53.49
  Z"
/>
<path fill="#fdf9fc" d="
  M 73.88 61.36
  C 72.42 60.21 72.12 58.42 70.71 57.52
  Q 69.74 56.91 68.63 56.70
  Q 68.14 56.61 67.68 56.78
  Q 66.53 57.22 65.82 56.03
  L 66.09 55.07
  A 1.08 1.07 26.0 0 1 67.76 54.50
  L 71.52 57.23
  Q 71.97 57.56 72.49 57.75
  Q 73.32 58.05 73.86 57.61
  Q 74.56 57.06 74.57 57.95
  Q 74.59 59.60 73.88 61.36
  Z"
/>
<path fill="#cda09f" d="
  M 65.82 56.03
  Q 66.53 57.22 67.68 56.78
  Q 68.14 56.61 68.63 56.70
  Q 69.74 56.91 70.71 57.52
  C 72.12 58.42 72.42 60.21 73.88 61.36
  L 73.28 77.24
  Q 73.23 78.45 72.57 77.43
  L 65.42 66.26
  Q 65.15 65.84 65.18 65.34
  L 65.82 56.03
  Z"
/>
<path fill="#cda09f" d="
  M 85.16 61.55
  Q 87.57 69.97 89.54 80.51
  C 90.65 86.39 91.16 91.89 90.39 98.28
  Q 89.56 105.13 90.11 113.27
  Q 90.24 115.14 89.71 116.88
  Q 89.46 117.71 89.24 116.88
  C 88.72 114.93 88.62 112.83 88.06 110.86
  Q 84.91 99.81 79.77 89.48
  Q 77.92 85.76 77.24 81.88
  Q 75.68 73.06 77.14 64.51
  Q 81.81 66.98 85.16 61.55
  Z"
/>
<path fill="#fdf9fc" d="
  M 101.25 101.60
  Q 103.75 80.44 94.09 64.26
  Q 93.74 63.34 94.17 62.19
  A 0.67 0.67 0.0 0 1 95.36 62.06
  Q 107.31 80.42 101.25 101.60
  Z"
/>
<path fill="#fdf9fc" d="
  M 89.77 61.97
  Q 90.90 62.66 91.38 62.22
  Q 91.39 63.51 90.94 64.70
  Q 90.75 65.21 90.46 64.75
  Q 89.79 63.67 89.77 61.97
  Z"
/>
<path fill="#fdf9fc" d="
  M 61.33 68.75
  Q 60.87 73.65 57.88 76.07
  L 56.74 64.05
  A 0.45 0.44 24.2 0 1 57.54 63.75
  L 61.33 68.75
  Z"
/>
<path fill="#cda09f" d="
  M 94.09 64.26
  Q 103.75 80.44 101.25 101.60
  Q 99.38 109.70 93.99 116.51
  Q 92.35 118.57 93.19 116.07
  C 94.67 111.65 92.65 106.56 93.27 101.88
  C 94.32 93.89 94.58 86.27 92.81 78.34
  Q 92.07 75.01 92.60 71.27
  Q 93.10 67.77 94.09 64.26
  Z"
/>
<path fill="#cda09f" d="
  M 61.33 68.75
  Q 69.94 79.68 76.35 91.89
  C 80.34 99.50 82.62 107.77 85.34 115.69
  Q 86.41 118.84 86.58 122.52
  A 1.48 1.47 64.9 0 1 86.21 123.55
  Q 83.06 127.15 79.82 123.74
  Q 66.80 110.01 61.70 92.26
  Q 59.54 84.74 57.88 76.07
  Q 60.87 73.65 61.33 68.75
  Z"
/>
<path fill="#fdf9fc" d="
  M 48.22 69.97
  L 42.71 73.31
  C 42.52 69.08 44.47 67.74 48.22 69.97
  Z"
/>
<path fill="#cda09f" d="
  M 48.22 69.97
  L 53.02 72.45
  Q 53.49 72.70 53.59 73.23
  Q 55.36 83.43 58.44 94.18
  Q 58.83 95.52 57.74 94.65
  Q 50.74 88.99 43.06 83.95
  Q 42.64 83.68 42.64 83.17
  L 42.71 73.31
  L 48.22 69.97
  Z"
/>
<path fill="#cda09f" d="
  M 224.62 79.49
  L 225.16 80.35
  Q 224.22 81.24 223.05 81.62
  Q 222.51 81.79 222.74 81.28
  Q 223.25 80.16 224.62 79.49
  Z"
/>
<path fill="#fdf9fc" d="
  M 41.07 88.45
  Q 41.10 91.80 42.47 94.75
  A 0.86 0.86 0.0 0 1 42.00 95.92
  L 37.38 97.68
  C 36.89 95.67 36.06 94.03 35.79 92.00
  Q 35.40 89.03 34.83 86.26
  A 0.59 0.58 8.3 0 1 35.68 85.63
  L 41.07 88.45
  Z"
/>
<path fill="#cda09f" d="
  M 41.07 88.45
  Q 50.81 93.48 54.96 97.81
  Q 57.66 100.62 60.24 103.03
  Q 62.23 104.89 63.27 107.07
  Q 68.33 117.67 75.88 126.52
  Q 76.37 127.10 75.62 127.00
  Q 74.22 126.80 72.92 126.24
  Q 65.54 123.05 55.93 117.06
  Q 43.83 109.51 37.38 97.68
  L 42.00 95.92
  A 0.86 0.86 0.0 0 0 42.47 94.75
  Q 41.10 91.80 41.07 88.45
  Z"
/>
<path fill="#cda09f" d="
  M 59.73 129.78
  L 60.60 129.37
  A 0.30 0.30 0.0 0 0 60.54 128.81
  Q 55.52 127.69 50.77 125.82
  Q 40.35 121.72 33.32 111.92
  Q 30.34 107.44 29.26 101.37
  A 1.86 1.85 82.7 0 1 30.94 99.19
  L 33.11 99.03
  Q 33.87 98.97 34.17 99.67
  Q 38.78 110.45 49.67 118.18
  Q 57.96 124.05 66.52 128.39
  Q 67.64 128.96 68.81 129.45
  Q 69.81 129.87 68.74 130.02
  Q 64.24 130.68 59.73 129.78
  Z"
/>
<path fill="#fdf9fc" d="
  M 59.73 129.78
  Q 55.18 129.31 50.66 127.90
  Q 38.16 123.99 33.32 111.92
  Q 40.35 121.72 50.77 125.82
  Q 55.52 127.69 60.54 128.81
  A 0.30 0.30 0.0 0 1 60.60 129.37
  L 59.73 129.78
  Z"
/>
<path fill="#cda09f" d="
  M 98.15 117.04
  Q 98.06 118.06 100.30 117.79
  L 94.43 120.58
  Q 94.03 120.77 94.03 120.33
  L 94.04 120.06
  A 1.08 1.07 -15.0 0 1 94.58 119.13
  L 98.15 117.04
  Z"
/>
</svg>
